inDegrees=no
num_controls=7
num_derivatives=13
num_iterations=116
num_multipliers=7
num_parameters=0
num_slacks=7
num_states=26
objective=0.497120
objective_accelerations=0.032489
objective_balance=0.003274
objective_effort=0.035121
objective_height=0.420733
objective_ligament=0.005503
solver_duration=1336.100085
status=Solve_Succeeded
success=true
DataType=double
version=3
OpenSimVersion=4.5
endheader
time	/jointset/ground_pelvis/pelvis_tilt/value	/jointset/ground_pelvis/pelvis_tx/value	/jointset/ground_pelvis/pelvis_ty/value	/jointset/hip_r/hip_flexion_r/value	/jointset/hip_r/hip_adduction_r/value	/jointset/hip_r/hip_rotation_r/value	/jointset/back/lumbar_extension/value	/jointset/patellofemoral_r/patellar_flexion_r/value	/jointset/knee_r/knee_flexion_r/value	/jointset/knee_r/knee_adduction_r/value	/jointset/knee_r/knee_rotation_r/value	/jointset/ankle_r/ankle_angle_r/value	/jointset/subtalar_r/subtalar_angle_r/value	/jointset/ground_pelvis/pelvis_tilt/speed	/jointset/ground_pelvis/pelvis_tx/speed	/jointset/ground_pelvis/pelvis_ty/speed	/jointset/hip_r/hip_flexion_r/speed	/jointset/hip_r/hip_adduction_r/speed	/jointset/hip_r/hip_rotation_r/speed	/jointset/back/lumbar_extension/speed	/jointset/patellofemoral_r/patellar_flexion_r/speed	/jointset/knee_r/knee_flexion_r/speed	/jointset/knee_r/knee_adduction_r/speed	/jointset/knee_r/knee_rotation_r/speed	/jointset/ankle_r/ankle_angle_r/speed	/jointset/subtalar_r/subtalar_angle_r/speed	/forceset/tau_hip_flexion_r	/forceset/tau_hip_adduction_r	/forceset/tau_hip_rotation_r	/forceset/tau_knee_flexion_r	/forceset/tau_ankle_angle_r	/forceset/tau_subtalar_angle_r	/forceset/tau_lumbar_extension	lambda_cid13_p0	lambda_cid14_p0	lambda_cid14_p1	lambda_cid14_p2	lambda_cid14_p3	lambda_cid14_p4	lambda_cid14_p5	/jointset/ground_pelvis/pelvis_tilt/accel	/jointset/ground_pelvis/pelvis_tx/accel	/jointset/ground_pelvis/pelvis_ty/accel	/jointset/hip_r/hip_flexion_r/accel	/jointset/hip_r/hip_adduction_r/accel	/jointset/hip_r/hip_rotation_r/accel	/jointset/back/lumbar_extension/accel	/jointset/patellofemoral_r/patellar_flexion_r/accel	/jointset/knee_r/knee_flexion_r/accel	/jointset/knee_r/knee_adduction_r/accel	/jointset/knee_r/knee_rotation_r/accel	/jointset/ankle_r/ankle_angle_r/accel	/jointset/subtalar_r/subtalar_angle_r/accel	gamma_cid13_p0	gamma_cid14_p0	gamma_cid14_p1	gamma_cid14_p2	gamma_cid14_p3	gamma_cid14_p4	gamma_cid14_p5
1	-0.1843993752385739	0.03782523511502769	0.7488596956574006	1.10236377874437	-0.2366422688637002	-0.07025870888475422	-0.43627975122426	1.160382753357273	1.160382753357853	-0.02857192928146588	0.1745243063578307	0.4363088242533392	0.1032224832680096	0.0002117370292385553	0.004448639172417996	0.0129322032255871	-0.03734270633700253	0.00167128291031229	-0.009580320150044341	0.005121892450338716	-0.04605111067095555	-0.04605111067095987	0.001198182872438888	-0.0001262796251194312	-0.01028160365093842	-0.0009093823856932203	-0.2011109315868642	0.03013087279271064	0.01338196500570457	-0.4444807493499409	-0.04242110060912242	0.00456842270448411	0.2460063824916597	-3.001409073789809	-60.97489686302936	-9.106046439618705	2.38443704279034	20.7270208165617	-772.0376331614968	54.68289323354011	0.9564930117697733	0.00552417303184482	1.250489114791166	-3.918460399270335	0.1214382188569016	-0.5973051708371589	0.2963419680184405	-4.365756005660629	-4.365756005660626	0.4816115313956285	-0.001694297185229192	-1.591673209818663	-0.3962477853527415	8.676735362270394e-10	-2.214725204243026e-09	4.178976689195297e-09	8.424680899256024e-09	6.055152059822689e-09	-3.662930098085735e-09	2.642178438493627e-09
1.01	-0.1843504117865656	0.03787015597942989	0.7490513921192082	1.101795406713306	-0.2366196056555409	-0.07038380321620283	-0.4362117409004423	1.159704189424319	1.159704189424435	-0.02853520667196523	0.1745229134320916	0.4361266138541833	0.1031934309763073	0.009542586593486224	0.004553157638409936	0.02540478554362499	-0.07631874224063052	0.002857948188934482	-0.01543888736776972	0.008610471057827038	-0.08966955900968204	-0.08966955900967938	0.006154072237417183	-0.0001483490478329907	-0.02614345545392671	-0.004899502863983442	-0.2016876386813387	0.03021651056214716	0.01338432994085053	-0.4440649243637441	-0.04261785110254451	0.004566654413802235	0.2466479360627782	-3.028275936736237	-61.0453505596115	-9.1151051988018	2.381260714836102	20.55538812395565	-772.3366815713869	54.6298959790971	0.9156266649122049	0.01556039623932044	1.245296008566309	-3.88523096697236	0.1167722142323193	-0.5801825299696244	0.3946606188208623	-4.361072063893822	-4.361072063892794	0.5037384502976033	-0.001866195227875948	-1.580888786793752	-0.4001549163650741	1.753282203341063e-09	-1.409273107342291e-09	8.199710280181802e-09	1.619203809631363e-08	5.621023494858598e-09	-6.18897830920209e-09	6.678227733564324e-09
1.02	-0.1842092906916828	0.03791665097106323	0.7493677450478475	1.100837663166992	-0.2365851774882231	-0.07056749322637317	-0.4361049358282086	1.158589204444793	1.158589204444447	-0.02844869300656465	0.1745214192260419	0.4357862954127459	0.1031245253323624	0.01864326560412993	0.004763464618646933	0.03786349659192691	-0.1152170093867922	0.004024274742254515	-0.02129945589467145	0.01288084213359038	-0.1333353199850157	-0.1333353199850061	0.01115639405234203	-0.0001465356870838117	-0.04190321210710928	-0.00888005283419065	-0.2022643457758185	0.03030214833158285	0.0133866948759571	-0.4436490993775485	-0.04281460159596561	0.004564886123120222	0.2472894896338918	-3.072733899345647	-61.12606481907824	-9.120860117443748	2.371731826773773	20.40520147912497	-772.7998639408336	54.60185131611426	0.910458901048988	0.02668187588084552	1.24771486084397	-3.902906647777054	0.117370473796466	-0.5977054326724323	0.4527004616734472	-4.375218532982069	-4.375218532982074	0.490898021384947	0.003082259507329915	-1.571254179857539	-0.3943336837361531	2.73897722201322e-09	-8.011693894447272e-10	1.060256164379358e-08	2.492395164891769e-08	5.801652333383435e-09	-8.573285489419884e-09	8.900378177914949e-09
1.03	-0.1839783261126411	0.03796579812649912	0.7498085846444581	1.099491341340662	-0.2365391777871785	-0.07080977942255698	-0.4359514486795629	1.15703732395578	1.157037323955566	-0.02831192267674684	0.1745200189688316	0.4352888895152348	0.1030158909361212	0.02750804845768657	0.005085726228160462	0.0502987591815522	-0.1540306863331089	0.005173546976540111	-0.02715570192015228	0.01795671200291076	-0.177048658086068	-0.1770486580860702	0.01620543946804451	-0.0001347167695489162	-0.05756092435172838	-0.01284187885086503	-0.202682977866191	0.03035033473011189	0.01339970363861985	-0.443046399680944	-0.04282683292734226	0.004525346859082379	0.2478202521475558	-3.135157524061955	-61.1328508749568	-9.129709917931038	2.362279668990094	20.20015179691875	-772.9983600314313	54.54069233239756	0.8682488906723999	0.03796346624124713	1.240580220052245	-3.868096885163967	0.1133939453562922	-0.579269137211442	0.5560489106902159	-4.370574240058379	-4.37057424006019	0.5130740639782947	5.88659855590626e-05	-1.560474215826614	-0.3963587617265976	3.725693529986993e-09	-1.950794305165853e-10	1.29889040050852e-08	3.366570761331304e-08	5.988554206637755e-09	-1.095614633258769e-08	1.110401945031944e-08
